<svg width="85" height="85" fill="none" xmlns="http://www.w3.org/2000/svg"><circle cx="42.5" cy="42.5" r="42.5" fill="#DCCE90"/><mask id="a" fill="#fff"><rect x="29.323" y="20.091" width="40.995" height="26.964" rx=".729"/></mask><rect x="29.323" y="20.091" width="40.995" height="26.964" rx=".729" stroke="#fff" stroke-width="4.373" mask="url(#a)"/><path d="M26.395 30.294h-3.298a.729.729 0 0 0-.729.728v24.413c0 .403.327.73.73.73h38.805a.729.729 0 0 0 .729-.73v-5.1" stroke="#fff" stroke-width="2.186"/><path d="M18.708 39.038h-3.297a.729.729 0 0 0-.729.73V64.18c0 .403.326.73.729.73h38.805a.729.729 0 0 0 .73-.73v-5.1" stroke="#fff" stroke-width="2.186"/></svg>