<svg width="85" height="85" fill="none" xmlns="http://www.w3.org/2000/svg"><circle cx="42.5" cy="42.5" r="42.5" fill="#DCCE90"/><path d="M33.953 24.885v-9.43h34.82v21.037H60.43l-9.068 9.067v-9.067H45.56" stroke="#fff" stroke-width="2.176"/><circle cx="45.197" cy="27.424" r="1.088" fill="#fff"/><circle cx="51" cy="27.424" r="1.088" fill="#fff"/><circle cx="56.803" cy="27.424" r="1.088" fill="#fff"/><path d="M41.57 41.932c0 5.716-4.162 10.156-9.068 10.156-4.907 0-9.068-4.44-9.068-10.156 0-5.715 4.162-10.156 9.068-10.156s9.068 4.44 9.068 10.156Z" stroke="#fff" stroke-width="2.176"/><path d="M22.709 41.57c2.055.725 7.181.943 11.244-3.99 1.16 4.642 6.045 4.594 8.342 3.99M28.15 51.363v5.078c-4.232.967-12.695 3.7-12.695 6.891v5.803h34.82v-4.798c0-.658-.168-1.311-.585-1.819-1.633-1.982-5.558-5.07-12.11-6.077v-5.804" stroke="#fff" stroke-width="2.176"/></svg>